<svg width="46" height="158" fill="none" xmlns="http://www.w3.org/2000/svg"><path d="M26.778 139.851c-1.372 0-2.483.408-3.332 1.225-.882.817-1.65 1.846-2.303 3.087a34.56 34.56 0 00-1.911 3.969 23.424 23.424 0 01-2.107 4.018 11.865 11.865 0 01-3.087 3.038c-1.241.817-2.81 1.225-4.704 1.225-2.679 0-4.802-.931-6.37-2.793-1.568-1.862-2.352-4.508-2.352-7.938 0-1.993.147-3.806.441-5.439.294-1.633.67-2.907 1.127-3.822l3.577 1.225c-.36.751-.702 1.862-1.029 3.332-.327 1.437-.49 3.071-.49 4.9 0 2.156.49 3.773 1.47 4.851.947 1.078 2.074 1.617 3.381 1.617 1.274 0 2.336-.408 3.185-1.225.85-.817 1.617-1.829 2.303-3.038a77.475 77.475 0 001.96-4.018 22.534 22.534 0 012.303-3.969 11.572 11.572 0 013.087-3.087c1.209-.817 2.711-1.225 4.508-1.225 1.47 0 2.793.261 3.969.784a8.35 8.35 0 013.038 2.303c.85 1.013 1.503 2.238 1.96 3.675.457 1.437.686 3.071.686 4.9 0 2.45-.196 4.475-.588 6.076-.36 1.601-.768 2.842-1.225 3.724l-3.675-1.372c.425-.751.85-1.862 1.274-3.332.392-1.47.588-3.12.588-4.949 0-1.078-.098-2.091-.294-3.038-.229-.947-.572-1.764-1.029-2.45a5.363 5.363 0 00-1.813-1.617c-.719-.425-1.568-.637-2.548-.637zM11 128.363v-3.92h24.5v3.92H11zm-7.448.833c-.751 0-1.388-.245-1.911-.735-.555-.523-.833-1.176-.833-1.96s.278-1.454.833-2.009c.523-.556 1.16-.833 1.911-.833.751 0 1.372.277 1.862.833.49.555.735 1.225.735 2.009 0 .784-.245 1.437-.735 1.96-.49.49-1.11.735-1.862.735zm33.075-32.379c3.169 0 5.504.85 7.007 2.548 1.503 1.666 2.254 4.149 2.254 7.448 0 1.96-.13 3.545-.392 4.753-.229 1.176-.539 2.189-.931 3.038l-3.332-1.029c.294-.751.572-1.584.833-2.499.261-.914.392-2.107.392-3.577 0-1.372-.13-2.482-.392-3.332-.229-.882-.637-1.584-1.225-2.107-.555-.522-1.29-.882-2.205-1.078-.882-.196-1.944-.294-3.185-.294h-2.352v.196a6.772 6.772 0 012.205 2.499c.49 1.013.735 2.336.735 3.969 0 3.3-1.029 5.733-3.087 7.301-2.058 1.536-5.26 2.303-9.604 2.303-4.181 0-7.35-.996-9.506-2.989-2.189-1.992-3.283-4.932-3.283-8.82 0-1.862.147-3.446.441-4.753.294-1.339.637-2.531 1.029-3.577h24.598zm-4.018 9.849c0-1.666-.408-2.972-1.225-3.92-.85-.947-2.156-1.617-3.92-2.009H14.92c-.62 1.307-.931 2.973-.931 4.998 0 2.222.751 3.969 2.254 5.243 1.503 1.274 3.855 1.911 7.056 1.911 1.372 0 2.63-.114 3.773-.343 1.143-.228 2.123-.588 2.94-1.078a5.355 5.355 0 001.911-1.911c.457-.784.686-1.747.686-2.891zM35.5 73.037H21.535c-2.548 0-4.459.376-5.733 1.127-1.307.719-1.96 2.058-1.96 4.018 0 1.731.474 3.169 1.421 4.312.915 1.11 2.074 1.895 3.479 2.352H35.5v3.92H11v-2.744l2.989-.735v-.196c-1.045-.784-1.895-1.83-2.548-3.136-.686-1.34-1.029-2.924-1.029-4.753 0-1.34.163-2.515.49-3.528a4.982 4.982 0 011.617-2.499c.784-.686 1.846-1.192 3.185-1.519 1.307-.36 2.973-.539 4.998-.539H35.5v3.92zM11 44.377h13.965c1.274 0 2.401-.065 3.381-.195.947-.164 1.748-.425 2.401-.784.62-.36 1.094-.85 1.421-1.47.327-.621.49-1.405.49-2.352 0-.882-.13-1.666-.392-2.352a6.192 6.192 0 00-1.176-1.813 7.684 7.684 0 00-1.666-1.421 10.094 10.094 0 00-2.058-1.03H11v-3.92h17.542c1.176 0 2.401-.032 3.675-.097a26.76 26.76 0 003.283-.441v2.695l-3.871.98v.245a9.744 9.744 0 013.185 3.038c.85 1.274 1.274 2.89 1.274 4.85 0 1.307-.163 2.467-.49 3.48a5.278 5.278 0 01-1.617 2.499c-.784.653-1.83 1.16-3.136 1.519-1.34.326-3.022.49-5.047.49H11v-3.92zm0-23.385v-2.695l2.94-.735v-.196c-1.143-.752-2.009-1.715-2.597-2.891-.62-1.209-.931-2.581-.931-4.116 0-3.267.964-5.7 2.891-7.301S18.383.657 22.76.657c2.058 0 3.92.277 5.586.833 1.633.522 3.022 1.274 4.165 2.254a9.935 9.935 0 012.646 3.577c.62 1.372.931 2.907.931 4.606 0 1.208-.082 2.172-.245 2.89-.13.687-.376 1.438-.735 2.255H45.3v3.92H11zm2.842-9.898c0 1.666.441 2.989 1.323 3.969.85.947 2.156 1.617 3.92 2.009h12.152a6.977 6.977 0 001.078-2.01c.229-.75.343-1.747.343-2.988 0-2.254-.833-4.035-2.499-5.341-1.699-1.34-4.181-2.01-7.448-2.01-1.34 0-2.548.115-3.626.344-1.11.228-2.042.604-2.793 1.127a4.985 4.985 0 00-1.813 1.96c-.425.784-.637 1.764-.637 2.94z" fill="#fff"/></svg>