<svg width="46" height="158" viewBox="0 0 46 158" fill="none" xmlns="http://www.w3.org/2000/svg">
<path d="M26.778 139.851C25.406 139.851 24.2953 140.259 23.446 141.076C22.564 141.893 21.7963 142.922 21.143 144.163C20.457 145.372 19.82 146.695 19.232 148.132C18.644 149.569 17.9417 150.909 17.125 152.15C16.2757 153.359 15.2467 154.371 14.038 155.188C12.7967 156.005 11.2287 156.413 9.334 156.413C6.65533 156.413 4.532 155.482 2.964 153.62C1.396 151.758 0.611999 149.112 0.611999 145.682C0.611999 143.689 0.758999 141.876 1.053 140.243C1.347 138.61 1.72267 137.336 2.18 136.421L5.757 137.646C5.39766 138.397 5.05467 139.508 4.728 140.978C4.40133 142.415 4.238 144.049 4.238 145.878C4.238 148.034 4.728 149.651 5.708 150.729C6.65533 151.807 7.78233 152.346 9.089 152.346C10.363 152.346 11.4247 151.938 12.274 151.121C13.1233 150.304 13.891 149.292 14.577 148.083C15.2303 146.842 15.8837 145.502 16.537 144.065C17.1903 142.628 17.958 141.305 18.84 140.096C19.6893 138.855 20.7183 137.826 21.927 137.009C23.1357 136.192 24.6383 135.784 26.435 135.784C27.905 135.784 29.228 136.045 30.404 136.568C31.58 137.091 32.5927 137.858 33.442 138.871C34.2913 139.884 34.9447 141.109 35.402 142.546C35.8593 143.983 36.088 145.617 36.088 147.446C36.088 149.896 35.892 151.921 35.5 153.522C35.1407 155.123 34.7323 156.364 34.275 157.246L30.6 155.874C31.0247 155.123 31.4493 154.012 31.874 152.542C32.266 151.072 32.462 149.422 32.462 147.593C32.462 146.515 32.364 145.502 32.168 144.555C31.9393 143.608 31.5963 142.791 31.139 142.105C30.649 141.419 30.0447 140.88 29.326 140.488C28.6073 140.063 27.758 139.851 26.778 139.851ZM11 128.363V124.443H35.5V128.363H11ZM3.552 129.196C2.80067 129.196 2.16367 128.951 1.641 128.461C1.08567 127.938 0.808 127.285 0.808 126.501C0.808 125.717 1.08567 125.047 1.641 124.492C2.16367 123.936 2.80067 123.659 3.552 123.659C4.30333 123.659 4.924 123.936 5.414 124.492C5.904 125.047 6.149 125.717 6.149 126.501C6.149 127.285 5.904 127.938 5.414 128.461C4.924 128.951 4.30333 129.196 3.552 129.196ZM36.627 96.8174C39.7957 96.8174 42.1313 97.6668 43.634 99.3654C45.1367 101.031 45.888 103.514 45.888 106.813C45.888 108.773 45.7573 110.358 45.496 111.566C45.2673 112.742 44.957 113.755 44.565 114.604L41.233 113.575C41.527 112.824 41.8047 111.991 42.066 111.076C42.3273 110.162 42.458 108.969 42.458 107.499C42.458 106.127 42.3273 105.017 42.066 104.167C41.8373 103.285 41.429 102.583 40.841 102.06C40.2857 101.538 39.5507 101.178 38.636 100.982C37.754 100.786 36.6923 100.688 35.451 100.688H33.099V100.884C34.0463 101.538 34.7813 102.371 35.304 103.383C35.794 104.396 36.039 105.719 36.039 107.352C36.039 110.652 35.01 113.085 32.952 114.653C30.894 116.189 27.6927 116.956 23.348 116.956C19.1667 116.956 15.998 115.96 13.842 113.967C11.6533 111.975 10.559 109.035 10.559 105.147C10.559 103.285 10.706 101.701 11 100.394C11.294 99.0551 11.637 97.8628 12.029 96.8174H36.627ZM32.609 106.666C32.609 105 32.2007 103.694 31.384 102.746C30.5347 101.799 29.228 101.129 27.464 100.737H14.92C14.2993 102.044 13.989 103.71 13.989 105.735C13.989 107.957 14.7403 109.704 16.243 110.978C17.7457 112.252 20.0977 112.889 23.299 112.889C24.671 112.889 25.9287 112.775 27.072 112.546C28.2153 112.318 29.1953 111.958 30.012 111.468C30.8287 110.978 31.4657 110.341 31.923 109.557C32.3803 108.773 32.609 107.81 32.609 106.666ZM35.5 73.0371H21.535C18.987 73.0371 17.076 73.4127 15.802 74.1641C14.4953 74.8827 13.842 76.2221 13.842 78.1821C13.842 79.9134 14.3157 81.3507 15.263 82.4941C16.1777 83.6047 17.3373 84.3887 18.742 84.8461H35.5V88.7661H11V86.0221L13.989 85.2871V85.0911C12.9437 84.3071 12.0943 83.2617 11.441 81.9551C10.755 80.6157 10.412 79.0314 10.412 77.2021C10.412 75.8627 10.5753 74.6867 10.902 73.6741C11.196 72.6614 11.735 71.8284 12.519 71.1751C13.303 70.4891 14.3647 69.9827 15.704 69.6561C17.0107 69.2967 18.6767 69.1171 20.702 69.1171H35.5V73.0371ZM11 44.3777H24.965C26.239 44.3777 27.366 44.3124 28.346 44.1817C29.2933 44.0184 30.0937 43.757 30.747 43.3977C31.3677 43.0384 31.8413 42.5484 32.168 41.9277C32.4947 41.307 32.658 40.523 32.658 39.5757C32.658 38.6937 32.5273 37.9097 32.266 37.2237C31.972 36.5377 31.58 35.9334 31.09 35.4107C30.6 34.8554 30.0447 34.3817 29.424 33.9897C28.7707 33.565 28.0847 33.222 27.366 32.9607H11V29.0407H28.542C29.718 29.0407 30.943 29.008 32.217 28.9427C33.4583 28.8447 34.5527 28.6977 35.5 28.5017V31.1967L31.629 32.1767V32.4217C32.903 33.173 33.9647 34.1857 34.814 35.4597C35.6633 36.7337 36.088 38.3507 36.088 40.3107C36.088 41.6174 35.9247 42.777 35.598 43.7897C35.304 44.7697 34.765 45.6027 33.981 46.2887C33.197 46.942 32.1517 47.4484 30.845 47.8077C29.5057 48.1344 27.8233 48.2977 25.798 48.2977H11V44.3777ZM11 20.9916V18.2966L13.94 17.5616V17.3656C12.7967 16.6143 11.931 15.6506 11.343 14.4746C10.7223 13.266 10.412 11.894 10.412 10.3586C10.412 7.09198 11.3757 4.65831 13.303 3.05765C15.2303 1.45698 18.3827 0.656648 22.76 0.656648C24.818 0.656648 26.68 0.934314 28.346 1.48965C29.9793 2.01231 31.3677 2.76365 32.511 3.74365C33.6543 4.72365 34.5363 5.91598 35.157 7.32065C35.7777 8.69265 36.088 10.228 36.088 11.9266C36.088 13.1353 36.0063 14.099 35.843 14.8176C35.7123 15.5036 35.4673 16.255 35.108 17.0716H45.3V20.9916H11ZM13.842 11.0936C13.842 12.7596 14.283 14.0826 15.165 15.0626C16.0143 16.01 17.321 16.6796 19.085 17.0716H31.237C31.6943 16.4836 32.0537 15.814 32.315 15.0626C32.5437 14.3113 32.658 13.315 32.658 12.0736C32.658 9.81965 31.825 8.03931 30.159 6.73265C28.4603 5.39331 25.9777 4.72365 22.711 4.72365C21.3717 4.72365 20.163 4.83798 19.085 5.06665C17.9743 5.29531 17.0433 5.67098 16.292 6.19365C15.508 6.68365 14.9037 7.33698 14.479 8.15365C14.0543 8.93765 13.842 9.91765 13.842 11.0936Z" fill="white"/>
</svg>
